<svg width="166" height="86" viewBox="0 0 166 86" fill="none" xmlns="http://www.w3.org/2000/svg">
<path fill-rule="evenodd" clip-rule="evenodd" d="M81.6552 0.28989L81.1838 0.000854492L80.7125 0.28989L48.9806 19.7478L48.5503 20.0117V20.5165V59.4323H50.3537V21.0213L81.1838 2.1163L112.014 21.0213V59.4323H113.817V20.5165V20.0117L113.387 19.7478L81.6552 0.28989ZM81.6568 5.63013L81.1854 5.3411L80.7141 5.63013L53.3376 22.4174L52.9072 22.6812V23.186V56.7605H54.7106V23.6908L81.1854 7.45654L107.66 23.6908V56.7605H109.464V23.186V22.6812L109.033 22.4174L81.6568 5.63013ZM81.1858 10.6829L81.6571 10.972L104.678 25.0885L105.109 25.3524V25.8572V54.0902H103.305V26.362L81.1858 12.7984L59.0663 26.362V54.0902H57.2629V25.8572V25.3524L57.6933 25.0885L80.7144 10.972L81.1858 10.6829ZM81.656 16.3121L81.1847 16.023L80.7133 16.3121L62.0475 27.7579L61.6172 28.0218V28.5266V51.4183H63.4206V29.0314L81.1847 18.1385L98.9488 29.0314V51.4183H100.752V28.5266V28.0218L100.322 27.7579L81.656 16.3121ZM81.1853 21.3665L81.6566 21.6555L95.9671 30.4306L96.3974 30.6945V31.1993V48.7496H94.594V31.7041L81.1853 23.4819L67.7765 31.7041V48.7496H65.9731V31.1993V30.6945L66.4035 30.4306L80.7139 21.6555L81.1853 21.3665ZM81.6567 27.3776L81.1853 27.0886L80.714 27.3776L71.07 33.2913L70.6396 33.5552V34.06V45.8874H72.443V34.5648L81.1853 29.204L89.9276 34.5648V45.8874H91.731V34.06V33.5552L91.3007 33.2913L81.6567 27.3776Z" fill="white"/>
<path d="M0.883789 68.1689H4.89598V82.2363H13.5891V85.5055H0.883789V68.1689Z" fill="white"/>
<path d="M27.3933 81.7905H19.3442L17.8087 85.5055H13.6974L21.4246 68.1689H25.3872L33.1392 85.5055H28.9289L27.3933 81.7905ZM26.1302 78.7442L23.3812 72.1068L20.6321 78.7442H26.1302Z" fill="white"/>
<path d="M50.838 68.1689V85.5055H47.5441L38.9005 74.9797V85.5055H34.9379V68.1689H38.2566L46.8754 78.6947V68.1689H50.838Z" fill="white"/>
<path d="M54.9398 68.1689H62.8156C64.6978 68.1689 66.3572 68.5321 67.7937 69.2586C69.2466 69.9686 70.3694 70.9758 71.1619 72.2802C71.971 73.5845 72.3755 75.1036 72.3755 76.8372C72.3755 78.5709 71.971 80.0899 71.1619 81.3943C70.3694 82.6986 69.2466 83.7141 67.7937 84.4406C66.3572 85.1505 64.6978 85.5055 62.8156 85.5055H54.9398V68.1689ZM62.6175 82.2116C64.3511 82.2116 65.7298 81.7327 66.7535 80.7751C67.7937 79.801 68.3138 78.4883 68.3138 76.8372C68.3138 75.1861 67.7937 73.8817 66.7535 72.9241C65.7298 71.9499 64.3511 71.4629 62.6175 71.4629H58.952V82.2116H62.6175Z" fill="white"/>
<path d="M91.3014 68.1689V85.5055H87.2892V78.3975H79.4135V85.5055H75.4013V68.1689H79.4135V75.0045H87.2892V68.1689H91.3014Z" fill="white"/>
<path d="M103.799 85.8027C101.999 85.8027 100.373 85.4147 98.9201 84.6387C97.4836 83.8627 96.3526 82.7977 95.527 81.4438C94.718 80.0734 94.3135 78.5379 94.3135 76.8372C94.3135 75.1366 94.718 73.6093 95.527 72.2554C96.3526 70.885 97.4836 69.8118 98.9201 69.0357C100.373 68.2597 101.999 67.8717 103.799 67.8717C105.599 67.8717 107.217 68.2597 108.653 69.0357C110.09 69.8118 111.221 70.885 112.046 72.2554C112.872 73.6093 113.285 75.1366 113.285 76.8372C113.285 78.5379 112.872 80.0734 112.046 81.4438C111.221 82.7977 110.09 83.8627 108.653 84.6387C107.217 85.4147 105.599 85.8027 103.799 85.8027ZM103.799 82.3849C104.823 82.3849 105.747 82.1538 106.573 81.6915C107.398 81.2126 108.042 80.5522 108.505 79.7101C108.984 78.8681 109.223 77.9104 109.223 76.8372C109.223 75.764 108.984 74.8064 108.505 73.9643C108.042 73.1222 107.398 72.47 106.573 72.0077C105.747 71.5289 104.823 71.2895 103.799 71.2895C102.775 71.2895 101.851 71.5289 101.025 72.0077C100.2 72.47 99.5475 73.1222 99.0687 73.9643C98.6064 74.8064 98.3752 75.764 98.3752 76.8372C98.3752 77.9104 98.6064 78.8681 99.0687 79.7101C99.5475 80.5522 100.2 81.2126 101.025 81.6915C101.851 82.1538 102.775 82.3849 103.799 82.3849Z" fill="white"/>
<path d="M124.002 85.8027C121.526 85.8027 119.594 85.1175 118.207 83.7471C116.837 82.3767 116.151 80.4201 116.151 77.8774V68.1689H120.164V77.7288C120.164 80.8329 121.451 82.3849 124.027 82.3849C125.282 82.3849 126.24 82.0134 126.9 81.2704C127.561 80.5109 127.891 79.3304 127.891 77.7288V68.1689H131.853V77.8774C131.853 80.4201 131.16 82.3767 129.773 83.7471C128.403 85.1175 126.479 85.8027 124.002 85.8027Z" fill="white"/>
<path d="M141.515 85.8027C140.144 85.8027 138.815 85.6211 137.527 85.2579C136.256 84.8781 135.232 84.391 134.456 83.7966L135.818 80.7751C136.561 81.32 137.445 81.7575 138.468 82.0877C139.492 82.418 140.516 82.5831 141.539 82.5831C142.679 82.5831 143.521 82.418 144.066 82.0877C144.61 81.741 144.883 81.2869 144.883 80.7256C144.883 80.3128 144.718 79.9743 144.387 79.7101C144.074 79.4295 143.661 79.2066 143.149 79.0414C142.654 78.8763 141.977 78.6947 141.118 78.4966C139.797 78.1829 138.716 77.8692 137.874 77.5554C137.032 77.2417 136.305 76.7381 135.694 76.0447C135.1 75.3512 134.803 74.4266 134.803 73.2708C134.803 72.2636 135.075 71.3555 135.62 70.5465C136.165 69.7209 136.982 69.0688 138.072 68.5899C139.178 68.1111 140.524 67.8717 142.109 67.8717C143.215 67.8717 144.297 68.0038 145.353 68.268C146.41 68.5321 147.335 68.9119 148.127 69.4072L146.889 72.4535C145.287 71.5454 143.686 71.0914 142.084 71.0914C140.961 71.0914 140.128 71.273 139.583 71.6362C139.054 71.9995 138.79 72.4783 138.79 73.0727C138.79 73.6671 139.096 74.1129 139.707 74.4101C140.334 74.6908 141.283 74.9715 142.555 75.2522C143.876 75.5659 144.957 75.8796 145.799 76.1933C146.641 76.507 147.359 77.0023 147.954 77.6793C148.565 78.3562 148.87 79.2726 148.87 80.4284C148.87 81.419 148.59 82.3271 148.028 83.1527C147.483 83.9617 146.658 84.6057 145.552 85.0845C144.445 85.5633 143.1 85.8027 141.515 85.8027Z" fill="white"/>
<path d="M165.035 82.2859V85.5055H151.612V68.1689H164.713V71.3886H155.599V75.1531H163.648V78.2737H155.599V82.2859H165.035Z" fill="white"/>
</svg>
