<svg width="30" height="30" viewBox="0 0 30 30" fill="none" xmlns="http://www.w3.org/2000/svg">
<path fill-rule="evenodd" clip-rule="evenodd" d="M15 0C6.70906 0 0 6.70533 0 15C0 18.1281 0.953948 21.0216 2.64844 23.5078C2.71151 23.6013 2.75269 23.7078 2.76892 23.8194C2.78515 23.931 2.77602 24.0448 2.74219 24.1523L1.21875 29.25L6.21094 27.5273C6.31765 27.4918 6.43098 27.4807 6.54255 27.4949C6.65412 27.5091 6.76106 27.5482 6.85547 27.6094C9.19379 29.1266 11.9931 30 15 30C23.2949 30 30 23.2949 30 15C30 6.7051 23.2949 0 15 0ZM8.85937 6.53906L11.5898 11.0508L10.4531 12.1758C10.3374 12.2926 10.2632 12.4441 10.2421 12.6072C10.2209 12.7702 10.2539 12.9357 10.3359 13.0781C12.0706 16.0821 14.1259 18.4191 17.0039 19.6875C17.1418 19.7488 17.295 19.767 17.4434 19.7398C17.5919 19.7126 17.7287 19.6413 17.8359 19.5352L19.043 18.3281L23.4492 21.0821C22.9613 22.1801 22.3252 22.8339 21.5977 23.2148C20.7549 23.6561 19.7255 23.7397 18.5508 23.4961C16.2014 23.0089 13.3634 21.1624 11.0508 18.7969C8.73811 16.4313 6.94843 13.5549 6.49219 11.2148C6.26407 10.0448 6.36484 9.0372 6.79687 8.2383C7.16887 7.55044 7.80074 6.96154 8.85937 6.53906V6.53906Z" fill="white"/>
</svg>
